STARTFONT 2.1
COMMENT Recovered from ar1.1:TONTO 1 (Xerox Alto CONVERT font source (AL) recovered from MIT CADR AR1 ARC!!!)
FONT MIT-CADR-TONTO-AL-AR1
SIZE 14 72 72
FONTBOUNDINGBOX 12 14 0 -14
STARTPROPERTIES 2
FONT_ASCENT 0
FONT_DESCENT 14
ENDPROPERTIES
CHARS 128
STARTCHAR C0000
ENCODING -1 0
SWIDTH 571 0
DWIDTH 8 0
BBX 8 14 0 -14
BITMAP
00
00
00
00
00
00
00
00
00
00
00
00
00
00
ENDCHAR
STARTCHAR C0001
ENCODING -1 1
SWIDTH 571 0
DWIDTH 8 0
BBX 8 14 0 -14
BITMAP
00
3C
3C
3C
3C
3C
3C
3C
3C
3C
00
00
00
00
ENDCHAR
STARTCHAR C0002
ENCODING -1 2
SWIDTH 571 0
DWIDTH 8 0
BBX 8 14 0 -14
BITMAP
00
04
0C
1C
3C
7C
3C
1C
0C
04
00
00
00
00
ENDCHAR
STARTCHAR C0003
ENCODING -1 3
SWIDTH 571 0
DWIDTH 8 0
BBX 8 14 0 -14
BITMAP
00
18
0C
06
06
06
4C
78
70
78
00
00
00
00
ENDCHAR
STARTCHAR C0004
ENCODING -1 4
SWIDTH 571 0
DWIDTH 8 0
BBX 8 14 0 -14
BITMAP
00
00
00
00
00
00
00
C6
C6
FE
00
00
00
00
ENDCHAR
STARTCHAR C0005
ENCODING -1 5
SWIDTH 571 0
DWIDTH 8 0
BBX 8 14 0 -14
BITMAP
30
30
30
30
3E
30
30
30
30
30
00
00
00
00
ENDCHAR
STARTCHAR C0006
ENCODING -1 6
SWIDTH 0 0
DWIDTH 0 0
BBX 0 14 0 -14
BITMAP
00
00
00
00
00
00
00
00
00
00
00
00
00
00
ENDCHAR
STARTCHAR C0007
ENCODING -1 7
SWIDTH 0 0
DWIDTH 0 0
BBX 0 14 0 -14
BITMAP
00
00
00
00
00
00
00
00
00
00
00
00
00
00
ENDCHAR
STARTCHAR C0008
ENCODING -1 8
SWIDTH 0 0
DWIDTH 0 0
BBX 0 14 0 -14
BITMAP
00
00
00
00
00
00
00
00
00
00
00
00
00
00
ENDCHAR
STARTCHAR C0009
ENCODING -1 9
SWIDTH 0 0
DWIDTH 0 0
BBX 0 14 0 -14
BITMAP
00
00
00
00
00
00
00
00
00
00
00
00
00
00
ENDCHAR
STARTCHAR C000A
ENCODING -1 10
SWIDTH 500 0
DWIDTH 7 0
BBX 7 14 0 -14
BITMAP
38
38
38
38
38
38
38
00
38
38
00
00
00
00
ENDCHAR
STARTCHAR C000B
ENCODING -1 11
SWIDTH 0 0
DWIDTH 0 0
BBX 0 14 0 -14
BITMAP
00
00
00
00
00
00
00
00
00
00
00
00
00
00
ENDCHAR
STARTCHAR C000C
ENCODING -1 12
SWIDTH 0 0
DWIDTH 0 0
BBX 0 14 0 -14
BITMAP
00
00
00
00
00
00
00
00
00
00
00
00
00
00
ENDCHAR
STARTCHAR C000D
ENCODING -1 13
SWIDTH 0 0
DWIDTH 0 0
BBX 0 14 0 -14
BITMAP
00
00
00
00
00
00
00
00
00
00
00
00
00
00
ENDCHAR
STARTCHAR C000E
ENCODING -1 14
SWIDTH 0 0
DWIDTH 0 0
BBX 0 14 0 -14
BITMAP
00
00
00
00
00
00
00
00
00
00
00
00
00
00
ENDCHAR
STARTCHAR C000F
ENCODING -1 15
SWIDTH 0 0
DWIDTH 0 0
BBX 0 14 0 -14
BITMAP
00
00
00
00
00
00
00
00
00
00
00
00
00
00
ENDCHAR
STARTCHAR C0010
ENCODING -1 16
SWIDTH 0 0
DWIDTH 0 0
BBX 0 14 0 -14
BITMAP
00
00
00
00
00
00
00
00
00
00
00
00
00
00
ENDCHAR
STARTCHAR C0011
ENCODING -1 17
SWIDTH 0 0
DWIDTH 0 0
BBX 0 14 0 -14
BITMAP
00
00
00
00
00
00
00
00
00
00
00
00
00
00
ENDCHAR
STARTCHAR C0012
ENCODING -1 18
SWIDTH 0 0
DWIDTH 0 0
BBX 0 14 0 -14
BITMAP
00
00
00
00
00
00
00
00
00
00
00
00
00
00
ENDCHAR
STARTCHAR C0013
ENCODING -1 19
SWIDTH 0 0
DWIDTH 0 0
BBX 0 14 0 -14
BITMAP
00
00
00
00
00
00
00
00
00
00
00
00
00
00
ENDCHAR
STARTCHAR C0014
ENCODING -1 20
SWIDTH 857 0
DWIDTH 12 0
BBX 12 14 0 -14
BITMAP
0000
3FC0
2040
2F40
2940
2940
2940
2940
2940
2F40
2040
D570
AA90
FFF0
ENDCHAR
STARTCHAR C0015
ENCODING -1 21
SWIDTH 0 0
DWIDTH 0 0
BBX 0 14 0 -14
BITMAP
00
00
00
00
00
00
00
00
00
00
00
00
00
00
ENDCHAR
STARTCHAR C0016
ENCODING -1 22
SWIDTH 0 0
DWIDTH 0 0
BBX 0 14 0 -14
BITMAP
00
00
00
00
00
00
00
00
00
00
00
00
00
00
ENDCHAR
STARTCHAR C0017
ENCODING -1 23
SWIDTH 0 0
DWIDTH 0 0
BBX 0 14 0 -14
BITMAP
00
00
00
00
00
00
00
00
00
00
00
00
00
00
ENDCHAR
STARTCHAR C0018
ENCODING -1 24
SWIDTH 0 0
DWIDTH 0 0
BBX 8 14 0 -14
BITMAP
00
00
00
00
00
00
00
00
00
00
00
00
00
FF
ENDCHAR
STARTCHAR C0019
ENCODING -1 25
SWIDTH 0 0
DWIDTH 0 0
BBX 0 14 0 -14
BITMAP
00
00
00
00
00
00
00
00
00
00
00
00
00
00
ENDCHAR
STARTCHAR C001A
ENCODING -1 26
SWIDTH 0 0
DWIDTH 0 0
BBX 0 14 0 -14
BITMAP
00
00
00
00
00
00
00
00
00
00
00
00
00
00
ENDCHAR
STARTCHAR C001B
ENCODING -1 27
SWIDTH 0 0
DWIDTH 0 0
BBX 0 14 0 -14
BITMAP
00
00
00
00
00
00
00
00
00
00
00
00
00
00
ENDCHAR
STARTCHAR C001C
ENCODING -1 28
SWIDTH 0 0
DWIDTH 0 0
BBX 0 14 0 -14
BITMAP
00
00
00
00
00
00
00
00
00
00
00
00
00
00
ENDCHAR
STARTCHAR C001D
ENCODING -1 29
SWIDTH 0 0
DWIDTH 0 0
BBX 0 14 0 -14
BITMAP
00
00
00
00
00
00
00
00
00
00
00
00
00
00
ENDCHAR
STARTCHAR C001E
ENCODING -1 30
SWIDTH 0 0
DWIDTH 0 0
BBX 0 14 0 -14
BITMAP
00
00
00
00
00
00
00
00
00
00
00
00
00
00
ENDCHAR
STARTCHAR C001F
ENCODING -1 31
SWIDTH 0 0
DWIDTH 0 0
BBX 0 14 0 -14
BITMAP
00
00
00
00
00
00
00
00
00
00
00
00
00
00
ENDCHAR
STARTCHAR C0020
ENCODING -1 32
SWIDTH 571 0
DWIDTH 8 0
BBX 8 14 0 -14
BITMAP
00
00
00
00
00
00
00
00
00
00
00
00
00
00
ENDCHAR
STARTCHAR C0021
ENCODING -1 33
SWIDTH 571 0
DWIDTH 8 0
BBX 8 14 0 -14
BITMAP
18
18
18
18
18
18
18
00
18
18
00
00
00
00
ENDCHAR
STARTCHAR C0022
ENCODING -1 34
SWIDTH 571 0
DWIDTH 8 0
BBX 8 14 0 -14
BITMAP
66
66
66
66
00
00
00
00
00
00
00
00
00
00
ENDCHAR
STARTCHAR C0023
ENCODING -1 35
SWIDTH 571 0
DWIDTH 8 0
BBX 8 14 0 -14
BITMAP
00
14
14
7E
28
28
FC
50
50
00
00
00
00
00
ENDCHAR
STARTCHAR C0024
ENCODING -1 36
SWIDTH 571 0
DWIDTH 8 0
BBX 8 14 0 -14
BITMAP
10
7C
D6
96
D0
7C
16
D2
D6
7C
10
00
00
00
ENDCHAR
STARTCHAR C0025
ENCODING -1 37
SWIDTH 571 0
DWIDTH 8 0
BBX 8 14 0 -14
BITMAP
00
E4
AC
E8
18
10
30
2E
6A
4E
00
00
00
00
ENDCHAR
STARTCHAR C0026
ENCODING -1 38
SWIDTH 571 0
DWIDTH 8 0
BBX 8 14 0 -14
BITMAP
00
38
6C
6C
38
7A
CE
C6
CE
7A
00
00
00
00
ENDCHAR
STARTCHAR C0027
ENCODING -1 39
SWIDTH 571 0
DWIDTH 8 0
BBX 8 14 0 -14
BITMAP
18
18
18
18
00
00
00
00
00
00
00
00
00
00
ENDCHAR
STARTCHAR C0028
ENCODING -1 40
SWIDTH 571 0
DWIDTH 8 0
BBX 8 14 0 -14
BITMAP
06
0C
18
18
30
30
30
30
30
18
18
0C
06
00
ENDCHAR
STARTCHAR C0029
ENCODING -1 41
SWIDTH 571 0
DWIDTH 8 0
BBX 8 14 0 -14
BITMAP
60
30
18
18
0C
0C
0C
0C
0C
18
18
30
60
00
ENDCHAR
STARTCHAR C002A
ENCODING -1 42
SWIDTH 571 0
DWIDTH 8 0
BBX 8 14 0 -14
BITMAP
10
54
7C
38
7C
54
10
00
00
00
00
00
00
00
ENDCHAR
STARTCHAR C002B
ENCODING -1 43
SWIDTH 571 0
DWIDTH 8 0
BBX 8 14 0 -14
BITMAP
00
00
00
18
18
18
FF
18
18
18
00
00
00
00
ENDCHAR
STARTCHAR C002C
ENCODING -1 44
SWIDTH 571 0
DWIDTH 8 0
BBX 8 14 0 -14
BITMAP
00
00
00
00
00
00
00
00
18
18
08
18
30
00
ENDCHAR
STARTCHAR C002D
ENCODING -1 45
SWIDTH 571 0
DWIDTH 8 0
BBX 8 14 0 -14
BITMAP
00
00
00
00
00
00
7E
7E
00
00
00
00
00
00
ENDCHAR
STARTCHAR C002E
ENCODING -1 46
SWIDTH 571 0
DWIDTH 8 0
BBX 8 14 0 -14
BITMAP
00
00
00
00
00
00
00
00
18
18
00
00
00
00
ENDCHAR
STARTCHAR C002F
ENCODING -1 47
SWIDTH 571 0
DWIDTH 8 0
BBX 8 14 0 -14
BITMAP
06
06
0C
0C
18
18
30
30
60
60
00
00
00
00
ENDCHAR
STARTCHAR C0030
ENCODING -1 48
SWIDTH 571 0
DWIDTH 8 0
BBX 8 14 0 -14
BITMAP
00
3C
66
66
66
66
66
66
66
3C
00
00
00
00
ENDCHAR
STARTCHAR C0031
ENCODING -1 49
SWIDTH 571 0
DWIDTH 8 0
BBX 8 14 0 -14
BITMAP
00
18
38
78
18
18
18
18
18
7E
00
00
00
00
ENDCHAR
STARTCHAR C0032
ENCODING -1 50
SWIDTH 571 0
DWIDTH 8 0
BBX 8 14 0 -14
BITMAP
00
3C
66
46
06
0C
18
30
60
7E
00
00
00
00
ENDCHAR
STARTCHAR C0033
ENCODING -1 51
SWIDTH 571 0
DWIDTH 8 0
BBX 8 14 0 -14
BITMAP
00
3C
66
46
06
1C
06
46
66
3C
00
00
00
00
ENDCHAR
STARTCHAR C0034
ENCODING -1 52
SWIDTH 571 0
DWIDTH 8 0
BBX 8 14 0 -14
BITMAP
00
0E
1E
16
36
26
66
7F
06
06
00
00
00
00
ENDCHAR
STARTCHAR C0035
ENCODING -1 53
SWIDTH 571 0
DWIDTH 8 0
BBX 8 14 0 -14
BITMAP
00
3E
30
30
3C
06
06
66
66
3C
00
00
00
00
ENDCHAR
STARTCHAR C0036
ENCODING -1 54
SWIDTH 571 0
DWIDTH 8 0
BBX 8 14 0 -14
BITMAP
00
3C
66
60
7C
66
66
66
66
3C
00
00
00
00
ENDCHAR
STARTCHAR C0037
ENCODING -1 55
SWIDTH 571 0
DWIDTH 8 0
BBX 8 14 0 -14
BITMAP
00
7E
06
0C
0C
18
18
30
30
30
00
00
00
00
ENDCHAR
STARTCHAR C0038
ENCODING -1 56
SWIDTH 571 0
DWIDTH 8 0
BBX 8 14 0 -14
BITMAP
00
3C
66
66
24
7E
66
66
66
3C
00
00
00
00
ENDCHAR
STARTCHAR C0039
ENCODING -1 57
SWIDTH 571 0
DWIDTH 8 0
BBX 8 14 0 -14
BITMAP
00
3C
66
66
66
66
3E
06
66
3C
00
00
00
00
ENDCHAR
STARTCHAR C003A
ENCODING -1 58
SWIDTH 571 0
DWIDTH 8 0
BBX 8 14 0 -14
BITMAP
00
00
00
00
18
18
00
00
18
18
00
00
00
00
ENDCHAR
STARTCHAR C003B
ENCODING -1 59
SWIDTH 571 0
DWIDTH 8 0
BBX 8 14 0 -14
BITMAP
00
00
00
00
18
18
00
00
18
18
08
18
30
00
ENDCHAR
STARTCHAR C003C
ENCODING -1 60
SWIDTH 571 0
DWIDTH 8 0
BBX 8 14 0 -14
BITMAP
00
06
0C
18
30
60
30
18
0C
06
00
00
00
00
ENDCHAR
STARTCHAR C003D
ENCODING -1 61
SWIDTH 571 0
DWIDTH 8 0
BBX 8 14 0 -14
BITMAP
00
00
00
7E
7E
00
7E
7E
00
00
00
00
00
00
ENDCHAR
STARTCHAR C003E
ENCODING -1 62
SWIDTH 571 0
DWIDTH 8 0
BBX 8 14 0 -14
BITMAP
00
60
30
18
0C
06
0C
18
30
60
00
00
00
00
ENDCHAR
STARTCHAR C003F
ENCODING -1 63
SWIDTH 571 0
DWIDTH 8 0
BBX 8 14 0 -14
BITMAP
00
3C
66
66
0C
18
18
00
18
18
00
00
00
00
ENDCHAR
STARTCHAR C0040
ENCODING -1 64
SWIDTH 571 0
DWIDTH 8 0
BBX 8 14 0 -14
BITMAP
3C
66
C2
CE
D2
D2
CC
C0
66
3C
00
00
00
00
ENDCHAR
STARTCHAR C0041
ENCODING -1 65
SWIDTH 571 0
DWIDTH 8 0
BBX 8 14 0 -14
BITMAP
18
3C
66
66
66
66
7E
66
66
66
00
00
00
00
ENDCHAR
STARTCHAR C0042
ENCODING -1 66
SWIDTH 571 0
DWIDTH 8 0
BBX 8 14 0 -14
BITMAP
7C
66
66
66
7C
66
66
66
66
7C
00
00
00
00
ENDCHAR
STARTCHAR C0043
ENCODING -1 67
SWIDTH 571 0
DWIDTH 8 0
BBX 8 14 0 -14
BITMAP
3C
66
66
60
60
60
60
66
66
3C
00
00
00
00
ENDCHAR
STARTCHAR C0044
ENCODING -1 68
SWIDTH 571 0
DWIDTH 8 0
BBX 8 14 0 -14
BITMAP
7C
66
66
66
66
66
66
66
66
7C
00
00
00
00
ENDCHAR
STARTCHAR C0045
ENCODING -1 69
SWIDTH 571 0
DWIDTH 8 0
BBX 8 14 0 -14
BITMAP
7E
60
60
60
7C
60
60
60
60
7E
00
00
00
00
ENDCHAR
STARTCHAR C0046
ENCODING -1 70
SWIDTH 571 0
DWIDTH 8 0
BBX 8 14 0 -14
BITMAP
7E
60
60
60
7C
60
60
60
60
60
00
00
00
00
ENDCHAR
STARTCHAR C0047
ENCODING -1 71
SWIDTH 571 0
DWIDTH 8 0
BBX 8 14 0 -14
BITMAP
3C
66
66
60
60
6E
66
66
66
3C
00
00
00
00
ENDCHAR
STARTCHAR C0048
ENCODING -1 72
SWIDTH 571 0
DWIDTH 8 0
BBX 8 14 0 -14
BITMAP
66
66
66
66
7E
66
66
66
66
66
00
00
00
00
ENDCHAR
STARTCHAR C0049
ENCODING -1 73
SWIDTH 571 0
DWIDTH 8 0
BBX 8 14 0 -14
BITMAP
7E
18
18
18
18
18
18
18
18
7E
00
00
00
00
ENDCHAR
STARTCHAR C004A
ENCODING -1 74
SWIDTH 571 0
DWIDTH 8 0
BBX 8 14 0 -14
BITMAP
1E
06
06
06
06
06
06
66
66
3C
00
00
00
00
ENDCHAR
STARTCHAR C004B
ENCODING -1 75
SWIDTH 571 0
DWIDTH 8 0
BBX 8 14 0 -14
BITMAP
66
66
6C
78
7C
66
66
66
66
66
00
00
00
00
ENDCHAR
STARTCHAR C004C
ENCODING -1 76
SWIDTH 571 0
DWIDTH 8 0
BBX 8 14 0 -14
BITMAP
60
60
60
60
60
60
60
60
60
7E
00
00
00
00
ENDCHAR
STARTCHAR C004D
ENCODING -1 77
SWIDTH 571 0
DWIDTH 8 0
BBX 8 14 0 -14
BITMAP
C6
EE
FE
D6
D6
D6
D6
C6
C6
C6
00
00
00
00
ENDCHAR
STARTCHAR C004E
ENCODING -1 78
SWIDTH 571 0
DWIDTH 8 0
BBX 8 14 0 -14
BITMAP
66
66
76
76
7E
6E
6E
66
66
66
00
00
00
00
ENDCHAR
STARTCHAR C004F
ENCODING -1 79
SWIDTH 571 0
DWIDTH 8 0
BBX 8 14 0 -14
BITMAP
3C
66
66
66
66
66
66
66
66
3C
00
00
00
00
ENDCHAR
STARTCHAR C0050
ENCODING -1 80
SWIDTH 571 0
DWIDTH 8 0
BBX 8 14 0 -14
BITMAP
7C
66
66
66
66
7C
60
60
60
60
00
00
00
00
ENDCHAR
STARTCHAR C0051
ENCODING -1 81
SWIDTH 571 0
DWIDTH 8 0
BBX 8 14 0 -14
BITMAP
3C
66
66
66
66
66
66
66
66
3C
0C
06
00
00
ENDCHAR
STARTCHAR C0052
ENCODING -1 82
SWIDTH 571 0
DWIDTH 8 0
BBX 8 14 0 -14
BITMAP
7C
66
66
66
7C
66
66
66
66
66
00
00
00
00
ENDCHAR
STARTCHAR C0053
ENCODING -1 83
SWIDTH 571 0
DWIDTH 8 0
BBX 8 14 0 -14
BITMAP
3C
66
66
70
38
1C
0E
C6
C6
7C
00
00
00
00
ENDCHAR
STARTCHAR C0054
ENCODING -1 84
SWIDTH 571 0
DWIDTH 8 0
BBX 8 14 0 -14
BITMAP
7E
18
18
18
18
18
18
18
18
18
00
00
00
00
ENDCHAR
STARTCHAR C0055
ENCODING -1 85
SWIDTH 571 0
DWIDTH 8 0
BBX 8 14 0 -14
BITMAP
66
66
66
66
66
66
66
66
66
3C
00
00
00
00
ENDCHAR
STARTCHAR C0056
ENCODING -1 86
SWIDTH 571 0
DWIDTH 8 0
BBX 8 14 0 -14
BITMAP
66
66
66
66
66
66
66
66
3C
18
00
00
00
00
ENDCHAR
STARTCHAR C0057
ENCODING -1 87
SWIDTH 571 0
DWIDTH 8 0
BBX 8 14 0 -14
BITMAP
C6
C6
C6
D6
D6
D6
FE
EE
C6
82
00
00
00
00
ENDCHAR
STARTCHAR C0058
ENCODING -1 88
SWIDTH 571 0
DWIDTH 8 0
BBX 8 14 0 -14
BITMAP
66
66
66
3C
18
3C
66
66
66
66
00
00
00
00
ENDCHAR
STARTCHAR C0059
ENCODING -1 89
SWIDTH 571 0
DWIDTH 8 0
BBX 8 14 0 -14
BITMAP
66
66
66
66
66
3C
18
18
18
18
00
00
00
00
ENDCHAR
STARTCHAR C005A
ENCODING -1 90
SWIDTH 571 0
DWIDTH 8 0
BBX 8 14 0 -14
BITMAP
7E
06
0C
0C
18
18
30
30
60
7E
00
00
00
00
ENDCHAR
STARTCHAR C005B
ENCODING -1 91
SWIDTH 571 0
DWIDTH 8 0
BBX 8 14 0 -14
BITMAP
7E
60
60
60
60
60
60
60
60
60
60
60
7E
00
ENDCHAR
STARTCHAR C005C
ENCODING -1 92
SWIDTH 571 0
DWIDTH 8 0
BBX 8 14 0 -14
BITMAP
60
60
30
30
18
18
0C
0C
06
06
00
00
00
00
ENDCHAR
STARTCHAR C005D
ENCODING -1 93
SWIDTH 571 0
DWIDTH 8 0
BBX 8 14 0 -14
BITMAP
7E
06
06
06
06
06
06
06
06
06
06
06
7E
00
ENDCHAR
STARTCHAR C005E
ENCODING -1 94
SWIDTH 571 0
DWIDTH 8 0
BBX 8 14 0 -14
BITMAP
00
00
00
18
3C
7E
5A
18
18
18
00
00
00
00
ENDCHAR
STARTCHAR C005F
ENCODING -1 95
SWIDTH 571 0
DWIDTH 8 0
BBX 8 14 0 -14
BITMAP
00
00
00
30
60
FE
FE
60
30
00
00
00
00
00
ENDCHAR
STARTCHAR C0060
ENCODING -1 96
SWIDTH 0 0
DWIDTH 0 0
BBX 0 14 0 -14
BITMAP
00
00
00
00
00
00
00
00
00
00
00
00
00
00
ENDCHAR
STARTCHAR C0061
ENCODING -1 97
SWIDTH 571 0
DWIDTH 8 0
BBX 8 14 0 -14
BITMAP
00
00
00
36
6E
66
66
66
6E
36
00
00
00
00
ENDCHAR
STARTCHAR C0062
ENCODING -1 98
SWIDTH 571 0
DWIDTH 8 0
BBX 8 14 0 -14
BITMAP
60
60
60
7C
66
66
66
66
66
7C
00
00
00
00
ENDCHAR
STARTCHAR C0063
ENCODING -1 99
SWIDTH 571 0
DWIDTH 8 0
BBX 8 14 0 -14
BITMAP
00
00
00
3C
66
66
60
66
66
3C
00
00
00
00
ENDCHAR
STARTCHAR C0064
ENCODING -1 100
SWIDTH 571 0
DWIDTH 8 0
BBX 8 14 0 -14
BITMAP
06
06
06
3E
66
66
66
66
66
3E
00
00
00
00
ENDCHAR
STARTCHAR C0065
ENCODING -1 101
SWIDTH 571 0
DWIDTH 8 0
BBX 8 14 0 -14
BITMAP
00
00
00
3C
66
66
7E
60
66
3C
00
00
00
00
ENDCHAR
STARTCHAR C0066
ENCODING -1 102
SWIDTH 571 0
DWIDTH 8 0
BBX 8 14 0 -14
BITMAP
0E
1B
18
7E
18
18
18
18
18
18
00
00
00
00
ENDCHAR
STARTCHAR C0067
ENCODING -1 103
SWIDTH 571 0
DWIDTH 8 0
BBX 8 14 0 -14
BITMAP
00
00
00
3E
66
66
66
66
66
3E
06
66
3C
00
ENDCHAR
STARTCHAR C0068
ENCODING -1 104
SWIDTH 571 0
DWIDTH 8 0
BBX 8 14 0 -14
BITMAP
60
60
60
7C
66
66
66
66
66
66
00
00
00
00
ENDCHAR
STARTCHAR C0069
ENCODING -1 105
SWIDTH 571 0
DWIDTH 8 0
BBX 8 14 0 -14
BITMAP
0C
0C
00
7C
0C
0C
0C
0C
0C
0C
00
00
00
00
ENDCHAR
STARTCHAR C006A
ENCODING -1 106
SWIDTH 571 0
DWIDTH 8 0
BBX 8 14 0 -14
BITMAP
0C
0C
00
3C
0C
0C
0C
0C
0C
0C
CC
CC
78
00
ENDCHAR
STARTCHAR C006B
ENCODING -1 107
SWIDTH 571 0
DWIDTH 8 0
BBX 8 14 0 -14
BITMAP
60
60
60
66
6C
78
78
6C
66
63
00
00
00
00
ENDCHAR
STARTCHAR C006C
ENCODING -1 108
SWIDTH 571 0
DWIDTH 8 0
BBX 8 14 0 -14
BITMAP
78
18
18
18
18
18
18
18
18
18
00
00
00
00
ENDCHAR
STARTCHAR C006D
ENCODING -1 109
SWIDTH 571 0
DWIDTH 8 0
BBX 8 14 0 -14
BITMAP
00
00
00
FC
D6
D6
D6
D6
D6
D6
00
00
00
00
ENDCHAR
STARTCHAR C006E
ENCODING -1 110
SWIDTH 571 0
DWIDTH 8 0
BBX 8 14 0 -14
BITMAP
00
00
00
7C
66
66
66
66
66
66
00
00
00
00
ENDCHAR
STARTCHAR C006F
ENCODING -1 111
SWIDTH 571 0
DWIDTH 8 0
BBX 8 14 0 -14
BITMAP
00
00
00
3C
66
66
66
66
66
3C
00
00
00
00
ENDCHAR
STARTCHAR C0070
ENCODING -1 112
SWIDTH 571 0
DWIDTH 8 0
BBX 8 14 0 -14
BITMAP
00
00
00
7C
66
66
66
66
66
7C
60
60
60
00
ENDCHAR
STARTCHAR C0071
ENCODING -1 113
SWIDTH 571 0
DWIDTH 8 0
BBX 8 14 0 -14
BITMAP
00
00
00
3E
66
66
66
66
66
3E
06
06
06
00
ENDCHAR
STARTCHAR C0072
ENCODING -1 114
SWIDTH 571 0
DWIDTH 8 0
BBX 8 14 0 -14
BITMAP
00
00
00
7C
66
66
60
60
60
60
00
00
00
00
ENDCHAR
STARTCHAR C0073
ENCODING -1 115
SWIDTH 571 0
DWIDTH 8 0
BBX 8 14 0 -14
BITMAP
00
00
00
3C
66
60
3C
06
C6
7C
00
00
00
00
ENDCHAR
STARTCHAR C0074
ENCODING -1 116
SWIDTH 571 0
DWIDTH 8 0
BBX 8 14 0 -14
BITMAP
00
08
18
7E
18
18
18
18
18
0E
00
00
00
00
ENDCHAR
STARTCHAR C0075
ENCODING -1 117
SWIDTH 571 0
DWIDTH 8 0
BBX 8 14 0 -14
BITMAP
00
00
00
66
66
66
66
66
66
3E
00
00
00
00
ENDCHAR
STARTCHAR C0076
ENCODING -1 118
SWIDTH 571 0
DWIDTH 8 0
BBX 8 14 0 -14
BITMAP
00
00
00
C6
C6
C6
44
6C
38
38
00
00
00
00
ENDCHAR
STARTCHAR C0077
ENCODING -1 119
SWIDTH 571 0
DWIDTH 8 0
BBX 8 14 0 -14
BITMAP
00
00
00
C3
C3
DB
DB
DB
7E
66
00
00
00
00
ENDCHAR
STARTCHAR C0078
ENCODING -1 120
SWIDTH 571 0
DWIDTH 8 0
BBX 8 14 0 -14
BITMAP
00
00
00
66
66
3C
18
3C
66
66
00
00
00
00
ENDCHAR
STARTCHAR C0079
ENCODING -1 121
SWIDTH 571 0
DWIDTH 8 0
BBX 8 14 0 -14
BITMAP
00
00
00
66
66
66
66
66
66
3E
06
66
3C
00
ENDCHAR
STARTCHAR C007A
ENCODING -1 122
SWIDTH 571 0
DWIDTH 8 0
BBX 8 14 0 -14
BITMAP
00
00
00
3E
06
0C
18
30
60
7E
00
00
00
00
ENDCHAR
STARTCHAR C007B
ENCODING -1 123
SWIDTH 571 0
DWIDTH 8 0
BBX 8 14 0 -14
BITMAP
0E
18
18
18
18
30
60
30
18
18
18
18
0E
00
ENDCHAR
STARTCHAR C007C
ENCODING -1 124
SWIDTH 571 0
DWIDTH 8 0
BBX 8 14 0 -14
BITMAP
18
18
18
18
18
18
18
18
18
18
18
18
18
00
ENDCHAR
STARTCHAR C007D
ENCODING -1 125
SWIDTH 571 0
DWIDTH 8 0
BBX 8 14 0 -14
BITMAP
70
18
18
18
18
0C
06
0C
18
18
18
18
70
00
ENDCHAR
STARTCHAR C007E
ENCODING -1 126
SWIDTH 0 0
DWIDTH 0 0
BBX 7 14 0 -14
BITMAP
00
00
00
00
00
32
7E
4C
00
00
00
00
00
00
ENDCHAR
STARTCHAR C007F
ENCODING -1 127
SWIDTH 0 0
DWIDTH 0 0
BBX 0 14 0 -14
BITMAP
00
00
00
00
00
00
00
00
00
00
00
00
00
00
ENDCHAR
ENDFONT
